vite.svg<?xml version="1.0" standalone="no"?>
<!DOCTYPE svg PUBLIC "-//W3C//DTD SVG 20010904//EN"
 "http://www.w3.org/TR/2001/REC-SVG-20010904/DTD/svg10.dtd">
<svg version="1.0" xmlns="http://www.w3.org/2000/svg"
 width="484.000000pt" height="524.000000pt" viewBox="0 0 484.000000 524.000000"
 preserveAspectRatio="xMidYMid meet">

<g transform="translate(0.000000,524.000000) scale(0.100000,-0.100000)"
fill="#000000" stroke="none">
<path d="M2336 4804 c-155 -37 -300 -154 -369 -296 -43 -89 -57 -152 -57 -252
1 -140 49 -275 131 -366 24 -27 39 -52 37 -65 -3 -19 -10 -20 -178 -20 -179 1
-181 1 -415 56 -49 11 -119 27 -155 34 -36 7 -158 36 -273 64 -114 28 -224 51
-245 51 -48 0 -129 -39 -169 -81 -122 -129 -83 -308 82 -379 52 -22 481 -159
980 -312 72 -22 138 -48 148 -57 15 -15 21 -49 32 -192 8 -96 19 -230 26 -299
6 -69 12 -138 13 -155 l1 -30 -780 -5 c-429 -3 -781 -6 -783 -8 -1 -1 -1 -233
0 -514 l3 -513 715 -3 c393 -1 717 -5 721 -10 4 -4 1 -65 -7 -137 -8 -71 -19
-170 -24 -220 -5 -49 -16 -148 -24 -220 -9 -71 -16 -131 -16 -131 0 -1 -22
-19 -50 -40 -65 -50 -80 -88 -80 -208 0 -73 4 -98 16 -110 13 -14 57 -16 324
-16 267 0 311 2 324 16 13 13 16 44 16 184 0 93 7 220 14 282 8 62 20 172 26
243 6 72 17 182 23 245 l12 115 115 0 115 0 8 -95 c9 -115 34 -374 48 -490 6
-47 13 -172 16 -278 5 -148 9 -197 20 -208 12 -11 70 -14 328 -14 367 0 335
-12 335 130 0 126 -16 158 -120 230 -25 17 -23 3 -65 460 -12 140 -21 257 -18
260 2 3 242 6 531 8 290 1 537 4 550 7 l22 5 0 509 0 508 -31 7 c-17 3 -295 6
-617 6 l-585 0 6 53 c3 28 11 90 16 137 6 47 17 171 26 275 9 105 18 195 20
202 2 7 18 19 35 28 28 15 558 183 710 226 114 32 363 116 411 138 138 65 172
228 74 356 -67 89 -160 112 -305 77 -47 -12 -143 -34 -215 -51 -71 -17 -227
-54 -345 -82 -210 -51 -219 -53 -390 -56 -96 -2 -181 0 -188 5 -12 8 -11 14 1
39 9 16 23 36 32 43 27 22 92 141 115 209 15 46 21 90 22 155 1 365 -342 636
-696 550z m297 -144 c89 -40 136 -77 200 -160 28 -36 56 -112 68 -183 11 -68
11 -85 -6 -154 -24 -104 -47 -147 -120 -218 -132 -131 -295 -167 -455 -99 -75
31 -108 54 -168 115 -51 50 -72 88 -101 183 -25 81 -26 122 -6 201 47 180 159
289 350 339 46 12 190 -3 238 -24z m-1736 -791 c15 -6 51 -15 78 -20 76 -14
79 -15 95 -22 8 -3 62 -16 120 -28 58 -12 116 -26 129 -31 14 -5 68 -18 120
-29 160 -33 205 -44 221 -54 9 -6 117 -11 258 -12 l244 -2 51 -48 c29 -26 54
-50 57 -53 12 -13 51 -30 69 -30 11 0 23 -4 26 -10 8 -12 229 -13 253 -1 9 5
29 14 44 21 15 7 36 20 45 29 10 9 40 32 66 52 l47 36 192 5 c123 4 217 11
258 21 71 17 119 28 250 57 47 10 117 26 155 35 39 8 84 18 100 21 28 5 76 17
241 59 106 27 156 18 194 -35 42 -59 33 -128 -20 -153 -8 -4 -22 -11 -30 -15
-16 -10 -98 -36 -310 -102 -74 -24 -180 -57 -235 -75 -55 -18 -127 -41 -160
-50 -33 -10 -82 -25 -110 -35 -27 -10 -84 -28 -125 -40 -41 -13 -91 -29 -110
-36 -19 -7 -53 -18 -75 -24 -22 -7 -49 -18 -59 -26 -21 -15 -26 -45 -50 -354
-19 -238 -31 -321 -48 -332 -7 -5 -192 -7 -411 -6 -461 3 -422 -7 -431 116 -7
89 -23 265 -40 439 -10 102 -15 125 -31 137 -11 8 -65 29 -120 46 -55 18 -118
38 -140 45 -22 7 -74 23 -115 35 -41 12 -82 25 -90 29 -8 4 -42 15 -75 25 -79
24 -175 56 -200 66 -11 4 -40 13 -65 20 -93 24 -366 112 -398 128 -72 36 -79
119 -15 179 28 27 42 33 78 33 24 0 56 -5 72 -11z m1328 -2419 c4 -6 2 -59 -4
-118 -6 -59 -13 -129 -15 -157 -2 -27 -7 -68 -10 -90 -3 -22 -11 -94 -17 -160
-16 -170 -12 -166 -161 -164 -88 1 -126 5 -135 15 -14 14 -11 77 17 294 5 41
14 129 20 195 10 118 18 173 27 188 7 11 271 9 278 -3z m789 -72 c3 -40 10
-136 16 -213 5 -77 15 -195 21 -262 16 -163 21 -158 -136 -150 -66 4 -121 7
-121 7 -10 2 -25 78 -34 170 -6 63 -17 189 -25 280 -9 91 -18 182 -22 203 l-6
37 150 0 150 0 7 -72z m-878 -765 c6 -5 14 -24 18 -44 5 -29 2 -39 -15 -55
-19 -17 -36 -18 -197 -16 -97 1 -185 5 -194 8 -13 4 -18 16 -18 42 0 62 23 69
224 71 94 1 176 -2 182 -6z m1053 -10 c24 -21 36 -71 22 -93 -9 -12 -42 -15
-208 -13 -174 1 -199 4 -210 19 -11 15 -9 76 4 97 2 4 87 7 187 7 160 0 186
-2 205 -17z"/>
</g>
</svg>
